<?xml version="1.0"?>
<svg width="500" height="500" xmlns="http://www.w3.org/2000/svg">
 <!-- Created with Method Draw - http://github.com/duopixel/Method-Draw/ -->
 <g>
  <title>Boo</title>
  <rect fill="#fff" id="canvas_background" height="502" width="502" y="-1" x="-1"/>
  <g display="none" overflow="visible" y="0" x="0" height="100%" width="100%" id="canvasGrid">
   <rect fill="url(#gridpattern)" stroke-width="0" y="0" x="0" height="100%" width="100%"/>
  </g>
 </g>
 <g>
  <path stroke="#000" id="svg_4" d="m71.260559,107.733109c39.558876,-144.185905 291.746674,-145.585773 359.738434,57.394379c67.991821,202.980148 77.881561,130.187271 60.574554,223.978104c-17.307007,93.790833 -44.503723,104.989716 -64.283173,81.192047c-19.779419,-23.797668 -23.488068,-58.79422 -23.488068,-88.191345c0,-29.397156 -9.889709,-32.196869 -37.086456,-32.196869c-27.196716,0 -40.795074,18.198212 -40.795074,39.196167c0,20.997955 6.181061,36.396454 -1.236206,55.994537c-7.417297,19.598083 -33.377808,36.396423 -48.212372,23.797638c-14.834564,-12.598755 -12.362183,-40.596008 -14.834564,-60.194092c-2.472443,-19.598083 2.472382,-32.196869 -19.779449,-30.796997c-22.251877,1.399872 -37.086441,-15.398499 -40.795074,20.997925c-3.708664,36.396484 6.181061,71.393036 -11.125946,83.991821c-17.307007,12.598755 -38.322662,25.19751 -50.684799,6.999329c-12.362144,-18.198242 -13.598366,-25.19754 -13.598366,-57.394409c0,-32.196869 -7.417282,-54.594666 -27.196709,-50.39505c-19.779449,4.199554 -34.614021,-4.199615 -34.614021,34.996552c0,39.196167 22.251862,78.392334 -12.362148,72.792908c-34.614006,-5.599457 -48.21237,8.39917 -48.21237,-34.996613c0,-43.395721 -4.944857,-46.195465 3.708646,-99.390259l64.283162,-247.775772z" fill-opacity="null" stroke-opacity="null" stroke-width="0" fill="#7f3f00"/>
  <ellipse ry="30.5" rx="36" id="svg_5" cy="118" cx="160" stroke-opacity="null" stroke-width="0" stroke="#000" fill="#000000"/>
  <ellipse ry="30.5" rx="36" id="svg_6" cy="118" cx="290" stroke-opacity="null" stroke-width="0" stroke="#000" fill="#000000"/>
  <path id="svg_8" d="m257,278.5c171,-1 160,-63 160,-63.5c0,0.5 -210,49.5 -296,1.5c-86,-48 -35,63 136,62z" fill-opacity="null" stroke-opacity="null" stroke-width="0" stroke="#000" fill="#000000"/>
 </g>
</svg>
